<?xml version="1.0" encoding="utf-8"?>
<!-- Generator: Adobe Illustrator 21.1.0, SVG Export Plug-In . SVG Version: 6.00 Build 0)  -->
<svg version="1.1" id="Layer_1" xmlns="http://www.w3.org/2000/svg" xmlns:xlink="http://www.w3.org/1999/xlink" x="0px" y="0px"
	 viewBox="0 0 200 164" style="enable-background:new 0 0 200 164;" xml:space="preserve">
<style type="text/css">
	.st0{fill:#F0CBC5;}
</style>
<path class="st0" d="M99.7,118.1l0,0.1l0,0v0L99.7,118.1L99.7,118.1z M99.6,118.3l-0.1-0.2c0,0.2,0,0.4,0,0.5
	C99.6,118.6,99.6,118.5,99.6,118.3L99.6,118.3L99.6,118.3L99.6,118.3L99.6,118.3z M33.6,146.9c0,0.1,0.1,0.2,0.2,0.2H39
	c0.1,0,0.2-0.1,0.2-0.2v-0.7c0-0.1-0.1-0.2-0.2-0.2h-4.1v-2.8h3.4c0.1,0,0.2-0.1,0.2-0.2v-0.7c0-0.1-0.1-0.2-0.2-0.2h-3.4v-2.6H39
	c0.1,0,0.2-0.1,0.2-0.2v-0.7c0-0.1-0.1-0.2-0.2-0.2h-5.1c-0.1,0-0.2,0.1-0.2,0.2V146.9z M43.2,146.3c0.2,0.2,1.2,1,2.8,1
	c1.7,0,2.9-1.1,2.9-2.4c0-1.6-1.3-2.3-2.8-2.9c-1.1-0.4-1.6-0.9-1.6-1.6c0-0.5,0.4-1.2,1.4-1.2c0.7,0,1.6,0.6,1.7,0.6
	c0.2,0.1,0.3,0,0.4-0.1c0.1-0.2,0.2-0.3,0.3-0.5c0.1-0.2,0-0.4-0.1-0.4c-0.1-0.1-1.1-0.8-2.4-0.8c-2,0-2.8,1.4-2.8,2.4
	c0,1.5,1,2.2,2.3,2.7c1.3,0.5,1.9,1,1.9,1.8c0,0.7-0.6,1.2-1.4,1.2c-1,0-2-0.8-2.1-0.9c-0.1-0.1-0.3-0.1-0.4,0.1
	c-0.1,0.2-0.2,0.4-0.3,0.5C43,146.1,43.1,146.2,43.2,146.3 M54.4,146.9c0,0.1,0.1,0.2,0.2,0.2h0.8c0.1,0,0.2-0.1,0.2-0.2v-7.5h2.1
	c0.1,0,0.2-0.1,0.2-0.2v-0.7c0-0.1-0.1-0.2-0.2-0.2h-5.5c-0.1,0-0.2,0.1-0.2,0.2v0.7c0,0.1,0.1,0.2,0.2,0.2h2.1V146.9z M61,146.4
	c0,0.5,0.4,0.9,0.9,0.9c0.5,0,0.9-0.4,0.9-0.9c0-0.5-0.4-0.9-0.9-0.9C61.4,145.5,61,145.9,61,146.4 M99.6,118.3L99.6,118.3
	L99.6,118.3L99.6,118.3z M99.7,118.2L99.7,118.2L99.7,118.2L99.7,118.2z M175.3,71.9c-0.4-0.4-1.3-0.2-1.6-0.7
	c0.9-0.2,0.6-1.6,1.9-1.4c0.2-0.7-0.3-0.6-0.2-1.2c2-1.5,2.3-4.8,4.7-5.9c0.1-1.9,1.9-4,2.8-5.9c0.2-0.8-0.6-0.5-0.7-0.9
	c0.6-1,2-2.5,0.9-3.7c0.7,0.2,0.7-0.4,1.2-0.5c3.4-6.5,6.5-13.3,8.4-21.3c-1,0.3-0.6-0.8-0.7-1.4c-0.5-0.2-1,0.8-1.2,0.2
	c0.7-3.3,0.7-7.6,1.4-10.3c0,0.6,0,1.2,0.7,1.2c-0.1-1.6,0.4-2.6,0.7-3.7c0.2,3-0.9,6-0.5,8.4c0.5-2.5,1.1-3.9,1.6-6.1
	c-0.7,0.2-0.5-6,0.7-4.7c-1-3.9,1.5-7.5-0.7-10.1c-0.6,2.1,0.1,5.6-0.9,7.3c0.1-0.5-0.1-0.9-0.5-0.9c0,0.6,0,1.1-0.5,1.2
	c-0.2-0.7,0.1-2,0-3.3c-2,3.5-0.4,7.9-2.1,11.9c-0.5-1.1,1.3-4,0-5.2c-2.8,26.9-14.8,44.6-27.9,61.1c-1.7,0.7-2.9,3.2-4.2,3.5
	c10.1-10.4,18.7-22.2,24.4-37c0.4-0.4,0.7-1,1.2-1.4c0.2-0.7-0.4-0.7-0.2-1.4c2-1.8,2.3-5.2,2.3-8.9c1.5-3.5,1.3-7.2,1.9-11.5
	c-2.2,5.4-1.2,13-4.7,17.3c0.3,0.7,0.2,1.5-0.5,1.9c0.6-4.5,2.5-9.8,3-14c-1.4,0.4-0.2,3.5-1.9,3.7c0.5-3.9,2.4-8.5,1.4-11.2
	c-0.2,0.4-0.1,1.2-0.5,1.4c0-1,0.4-1.6,0.2-2.8c-2,0.2-0.6,3.7-1.9,4.7c-0.1-1.1,0.1-1.8,0.2-2.6c-2.8,2.1-2,7.9-4.2,10.5
	c-0.2-0.7,0.4-0.7,0.2-1.4c-0.9-0.2-0.3,1.1-1.2,0.9c0.6-1.9-0.3-2.5,0-4.4c-0.8,0.2-0.9,1.1-1.4,1.6c-0.2-0.6,0.5-2.2-0.5-2.1
	c0,2.6-1.2,4-1.2,6.6c-1.8,0-1.1,2.4-2.8,2.3v1.9c-1.3,1-2,2.7-3,4c-0.5-0.6,1.4-2.5,0.2-3c0.2,0.8-1,0.2-1.2,0.7
	c-0.3,0.9-0.3,2-1.2,2.3v-1.4c-0.3,0-0.7,0-0.7-0.2c-1.9,0-1.4,2.5-3.5,2.3c0,1.3-0.5,2.2-1.4,2.6c0-1-1-1.2-1.2-1.4
	c-0.2-0.6,1.1-1.6,0-1.6c-0.6,3-3,6.1-4.4,8.2c-1.7,2.5-2.9,5.7-4.7,8c-1.4,1.9-3.7,3.6-5.4,5.4c-0.8,0.9-1.3,2-2.1,2.8
	c-5.8,5.5-15.4,10.4-23.6,13.1c-2.8,0.9-7,2.4-9.1,1.4c-0.2-2.1-0.3-4.4-1.2-5.9c-2.9-1.7-4.6,1-4.7,3.5c-3.6-2.9-9,0.2-10.5,3
	c-7.1,0.2-11.1-2.6-16.9-3.7c-11.9-4.3-21.5-10.6-28.6-19.7c-3.3-4.2-6.5-9.1-8.4-14.5c-0.9-0.3-0.9-1.6-1.9-1.9
	c-0.2,0.9,0.5,0.9,0.5,1.6c-0.9,0-1,0.9-1.4,1.4c-1.1-2.1-2.7-3.7-4.7-4.9c-0.1,0.2-0.2,0.3-0.5,0.2c-0.9,0.3,0.2,1.3-0.7,1.4
	c-0.4-0.8-0.7-1.6-0.9-2.6c-0.8,0.4-0.6-0.2-1.4-0.2c-0.3,1.2,1.1,2,0.5,2.8c-0.7-1.6-2.1-2.5-2.8-4.2c0.4,0,0.2,0.6,0.7,0.5
	c0.2-1.4-0.5-0.8-0.9-1.2c0.4-1.9-2.2-0.9-1.6-3c-0.3-0.6-0.9,0.3-0.9-0.2c0.2-1.1-1.5-2.9,0.2-2.1c-0.6-1-1.6-1.5-1.6-3
	c-1,1.3-1.2-1.3-2.1-0.7c0.5,1.4,0,2.7,0,4.4c-0.6-0.1-0.1-1.1-0.9-0.9c-0.3,0.6,0.7,1.1,0,1.4c-0.8-1.7-1.2-3.6-1.6-5.2
	c0.5-0.1,0.3,0.7,0.7,0.7c-0.2-2.6-3.2-4.6-2.3-6.8c-1.8,0,0,2.3-0.9,3.3c-0.2-1.8-0.1-4-1.4-4.7c-0.6,0.8,0.5,2-0.2,2.8
	c-0.1-0.4,0.3-1.4-0.5-1.2c-0.2,4.3,1.8,7.6,1.6,11c-1.2-0.4-0.2-3-1.6-3.3c0.3,1.2,0.7,2.5,0,2.8c0,0.8,0.8-0.5,0.7,0.2
	c0.6,3.5,2.3,7.2,2.3,10.5c-1.5-3.7-3.3-8-3.7-11.9c0.4,0,0.8,0,0.7-0.5c-0.2-0.9-1,0.2-0.9-0.7c0.8-0.3,1-3.5-0.2-4.2
	c0.1,0.8,0.6,2.3,0.2,2.8c-0.7-1.2-0.2-3.7-1.2-4.7c-0.1,4.8,1.5,9.4,1.9,13.8c0.1,0.7,0.1,1.7,0.2,2.3c0.4,2,2.1,3.5,1.9,5.2
	c-1.5-3.3-3.5-7.4-3.7-11.2c-0.1,0.5,0.1,0.9,0.5,0.9c-0.2-1.1,0.3-1.6-0.7-2.1c0,0.3,0.1,0.9-0.2,0.9c-0.2-1.7-0.8-2.9-0.9-4.7
	c0.1-0.5,0.6,0.3,0.7-0.5c-0.5,0-0.1-1-0.2-1.4c-1-0.3,0,1.4-0.7,1.4c0-1.2-0.7-3-0.2-4c0.7,0.3-0.3,2.2,0.7,2.1
	c0.4-0.7-0.3-2.9-0.2-4.7c-1.1-0.3,0.2,1.7-0.9,1.4c0-1.6,0.2-3.4-1.2-3.7c-0.1,1.8,0.9,3.6,0.5,4.9c-1.7-3.9,0.3-7-0.9-10.3
	c-0.7,0.7,0.7,2.2,0,3.3c-0.8-1.2-0.2-3.9-1.2-4.9c-0.2,1,0.3,2.6-0.2,3.3c-0.6,0.2,0.2-1.1-0.5-0.9c-0.3,0.1,0,0.9-0.5,0.9
	C5.8,10.2,5.2,8,5.7,6.8c0.3,0.6-0.2,2,0.7,2.1V6.3C6,5.6,5.7,7,5.5,6.3C5.4,5.6,5.6,4.6,4.8,4.5c-1,1.9,0,6.7,0.2,9.8
	c0.1-0.2,0-0.5,0.2-0.5c0.9,4.5-0.1,7.6,2.1,11c-0.2-2.7-1.1-5.9-0.7-8.4c0.7,1.5,0.1,3,0.9,4C7.8,20,7.7,19.2,8.1,19
	c0.4,3.5,0.8,7.1,1.4,10.5c-0.3-0.2-0.6-0.3-1.2-0.2c0,1.4-0.7,1.8-0.2,3.5c1.9,6.3,6.2,16.2,9.4,19.7c-1,1,0.9,2.6,1.2,3.7
	c-0.4,0-0.8,0-0.7,0.5c2,4.7,4.8,8,7.7,12.2c-0.2,0.4-0.7,0.2-0.2,0.7c0.7,0.6,1.5,1,1.9,1.9c-0.8-0.2-0.9,0.3-1.6,0.2
	c1.5,2.1,3,5.2,5.2,5.9c-0.4,0,0.3,0.8,0,1.4c2.7,1.4,2.9,4.2,4.7,6.8c0.4,0.1,0.5-0.3,0.9-0.2c2,3,4.5,5.3,7.5,7.3
	c-0.6,0.6,0.3,0.4,0.2,1.2c1.6,0.1,2.4,1.1,2.8,2.3c2.1,0.3,2.9,2.9,4.9,2.6c0.7,0.4-0.1,0.9,0.7,0.9c0.3,0,0.2-0.4,0.5-0.5
	c0.5,0.5-0.1,0.5-0.2,0.9c3,1.9,6.3,3.5,9.6,5.2c-0.5,0.9,0.3,1.2,1.2,1.4c0.8-0.3-1.3-1-0.7-1.2c1.7,0.9,3.3,1.9,5.4,2.3
	c0-1.2,0.8-0.1,0.9-0.9c-0.2-0.4-0.7-0.4-0.7-0.9c1.1,0.7,0.8-0.4,0.9-0.7c2.2,0.3,3.4,2.8,5.6,2.3c0.3-0.8-1.4-0.7-0.7-1.2
	c0.4,0.6,1.8,0.2,2.3,0.7c-0.4,0-0.5,0.2-0.5,0.7c0.8-0.4,0.8,0.1,1.6,0.2c0-0.3-0.1-0.9,0.2-0.9c0,0.7,0.4,1,1.2,0.9
	c1-1.8,4.3-1.1,6.1-1.2c-1.2,0.1-2.3,0.2-2.6,1.2c-1.6-0.4-3.6,0.2-5.1,0.2c1.4,1.5,3.7,0,6.3,0.5c0.3-0.9-1,0-0.7-0.9
	c2.8-0.2,3.4-1.2,5.9-1.6c1.5,4.7,3.2,11,9.1,9.8c5.1-1,5.4-8.7,7.3-13.6v7c-6.9,9.7-13.7,20.5-14.8,36.3c-0.4,6.5,0.6,17.9,8,16.9
	c7.6-1.1,11.1-15,11.9-25.8c0.8-10.2,1.4-22.3,1.4-30.7c0.7,0.1,0.7,0.9,1.2,1.2c5,0.4,10.6,0.4,14.8-0.2c0.1,0.4-0.3,0.6,0,0.7
	c1.2-0.9,2.5-1.7,4.2-2.1c0.2,0.7-0.3,0.6-0.2,1.2c0.4,0.1,0.5-0.3,0.9-0.2c-0.1,0.4-0.7,0.4-0.5,1.2c0.2,0.2,0.9,0.1,0.7,0.7
	c5.5-2.1,10.2-5,15-7.7c0.6-0.5-0.8-0.9,0.2-1.2c0.4,0,0.1,0.7,0.5,0.7c0.3-0.3,0.1-1.1,0.7-1.2c1,0.6,1.2-0.7,2.1-1.2
	c2.3-1.2,3.6-3.5,5.6-5.2c2.9-2.4,5.8-4.6,7.7-7.3c0,0.3,0.4,0.3,0.7,0.2C167.7,80.3,171.7,77.2,175.3,71.9 M8.8,30.7
	c0.5,0.2,0.7,0.7,0.7,1.4C8.8,32.1,8.8,31.4,8.8,30.7 M191.2,30.7c0.5,0.2,0.2,1.5-0.5,1.2C190.5,31.1,191.1,31.1,191.2,30.7
	 M9.9,31.2c0.8,0.8,0.7,2.5,1.2,3.7C10.3,34.1,10,32.7,9.9,31.2 M190,31.2c0.5,1.1,0.1,3.3-0.9,3.7C189.7,34,189.5,32.2,190,31.2
	 M10.2,36.6c0.3,0.6,1.1,0.8,0.9,1.9C10.5,38.1,10.2,37.4,10.2,36.6 M190,36.6c0.3,0.3-0.4,1.4-0.7,1.9
	C188.8,37.9,189.8,37.1,190,36.6 M11.1,38.7c1.4,1.9,1.9,4.6,3,6.8C12.6,43.8,11.9,41.2,11.1,38.7 M188.9,38.7
	c0.4,1.8-1.3,5.2-2.6,6.8C187.2,43.2,188,41,188.9,38.7 M17.9,40.1c0.7,1.7,2.2,2.7,2.6,4.7C19.4,43.4,18.3,42.1,17.9,40.1
	 M182.1,40.1c1.1,1.5-1.4,3.4-1.9,4.9C179.5,43,182.1,42.3,182.1,40.1 M42.5,79.4C31.2,70.2,23,55.8,16,41.5
	c-0.1-0.8,1.1,0.6,1.2,0.7c1,1.6,1.4,3.8,2.3,5.6C25.4,59.7,33.2,70.6,42.5,79.4 M14.6,44c0.5,0.3,0.9,0.7,0.9,1.4
	C14.8,45.4,14.8,44.6,14.6,44 M185.6,44c0.4,0.2-0.1,1.4-0.7,1.4C184.7,44.5,185.4,44.6,185.6,44 M182.1,51.5
	c0.5,0.5-0.7,1.3-0.9,1.9C180.7,53.8,181.6,51.8,182.1,51.5 M18.4,51.8c0.6,0.3,0.9,0.8,1.2,1.4C19.4,53.4,18.5,52.4,18.4,51.8
	 M178.3,58.1c0.6,0.4-0.4,1-0.5,1.4C177.2,59.1,178.2,58.5,178.3,58.1 M23.3,64.4c0.6-0.8,0.8,0.9,1.4,0.9
	C24.1,66.1,24,64.4,23.3,64.4 M177.1,64.2c0.3,0.3-0.4,1.6-1.2,1.6C176.4,65.3,176.6,64.6,177.1,64.2 M26.3,66.8
	c-0.3-0.3,1.6,0.9,1.4,1.9C27.1,68.2,26.8,67.3,26.3,66.8 M174.3,66.8c0.3,0.4-0.9,1.4-1.2,2.1C172.8,68.3,173.8,67.2,174.3,66.8
	 M28.4,67.7c0.6,0.4,1.6,1.2,1.2,1.9C29.2,69,28.5,68.6,28.4,67.7 M172.2,67.7c0.4,0.5-0.4,1.8-1.2,1.9
	C171.2,68.7,171.9,68.4,172.2,67.7 M30.1,69.8c0.7,0.5,1.8,1.7,1.6,2.3C30.9,71.7,30.5,70.7,30.1,69.8 M170.4,70.3
	c0.3-0.3-0.4,2.2-1.4,2.1C169,71.3,170,71.1,170.4,70.3 M28.7,71.7c1.8,0.9,3.2,4.1,5.2,5.6C31.8,76.7,30.4,73.4,28.7,71.7
	 M172,71.4c-0.8,2-2.8,4.8-4.9,6.3C168.7,75.6,170.3,73.5,172,71.4 M33.8,74.5c0.8,0.6,1.3,1.5,2.1,2.1C35.1,77,34.2,75.3,33.8,74.5
	 M166.8,74.7c0.2,0.7-0.9,2-1.9,2.3C165.4,76.1,166.4,75.6,166.8,74.7 M171.5,75.4c0.7,0.6-0.8,1-0.9,1.6
	C170.1,76.6,171.3,76,171.5,75.4 M102.4,75.9c2,0.9,2.5,3.3,2.6,5.6c0.5,9.7-3.4,22.7-6.1,30c-3.8-4.3-2.6-12-1.6-19
	c0.4-2.7,0.8-5.3,1.4-8c0.6-2.6,1.4-6.5,3.3-8.7H102.4z M88.9,103.8c-0.8,1.2-3.1-0.4-4.5,0.5c-0.5,0.5-1.3,1.5-2.3,0.7
	C82.8,103.2,87.2,103.8,88.9,103.8 M113.2,104.7c1.3-0.2,4.5-0.1,5.2,1.2C116.4,106.6,115,104.9,113.2,104.7 M65.4,104.9
	c0.9-0.1,0.6,0.9,1.6,0.7C66.6,106.2,65.3,105.7,65.4,104.9 M133.8,105.6c-0.2,0.5-1.1,0.8-1.4,0.5
	C132.6,105.7,133.1,105.6,133.8,105.6 M135.9,105.6c-0.1,0.3-0.3,0.6-0.5,0.9h-1.2C134.8,106.2,135.2,105.7,135.9,105.6
	 M105.5,115.2c0.2,0,0.2,0.3,0.2,0.5c-0.4,11.4-1,24.6-3.5,35.6c-0.4,1.8-2,8.7-4.2,8.9c-2.4,0.2-3.6-5-3.7-8.2
	C93.7,139,100.1,123,105.5,115.2 M143.2,141.2c0-1.3-1-2.5-2.8-2.5c-1.5,0-2.5,1.3-2.5,1.3l0,0.3l0.4,0.4h0.3
	c0.3-0.4,0.9-0.8,1.6-0.8c1.1,0,1.6,0.7,1.6,1.4c0,0.5-0.3,1.1-1,1.8c-0.9,1.1-2.3,2.7-3.2,3.8v0.3l0.2,0.2h4.9l0.2-0.2v-0.6
	l-0.2-0.2h-3.3c0.8-0.9,1.6-1.9,2.3-2.7C142.6,142.8,143.2,142.2,143.2,141.2z M150.4,138.7c-2,0-3.1,1.7-3.1,4.4
	c0,2.8,1.1,4.4,3.1,4.4c2,0,3.1-1.7,3.1-4.4C153.5,140.4,152.4,138.7,150.4,138.7z M150.4,146.4c-1.2,0-1.9-1.2-1.9-3.3
	c0-2.1,0.7-3.3,1.9-3.3c1.2,0,1.9,1.2,1.9,3.3C152.3,145.3,151.6,146.4,150.4,146.4z M161,138.7c-2,0-3.1,1.7-3.1,4.4
	c0,2.8,1.1,4.4,3.1,4.4s3.1-1.7,3.1-4.4C164.1,140.4,163,138.7,161,138.7z M161,146.4c-1.2,0-1.9-1.2-1.9-3.3c0-2.1,0.7-3.3,1.9-3.3
	s1.9,1.2,1.9,3.3C162.8,145.3,162.2,146.4,161,146.4z M171.4,139c-1.7,0-2.9,1.3-2.9,3c0,1.5,1.1,2.6,2.5,2.6c0.7,0,1.3-0.2,1.7-0.6
	c-0.2,0.7-0.5,1.2-0.9,1.7c-0.4,0.4-1,0.7-1.6,0.7c-0.4,0-0.6,0.1-0.9,0l-0.2,0.1v0.9l0.1,0.1c0.1,0,0.1,0,0.2,0
	c0.2,0,0.5,0,0.8-0.1c0.9-0.1,1.8-0.5,2.4-1.1c0.7-0.6,1.4-1.8,1.4-3.9C174.2,140.4,173.1,139,171.4,139z M172.7,142.8
	c-0.3,0.5-0.8,0.8-1.5,0.8c-0.8,0-1.4-0.6-1.4-1.6c0-1.1,0.6-1.8,1.5-1.8c1.4,0,1.5,1.6,1.5,2.3
	C172.8,142.6,172.8,142.7,172.7,142.8z"/>
</svg>
